# Blender 5.1.1
# www.blender.org
o Cube
v -0.108840 0.000000 0.108840
v -0.133990 0.267979 0.133990
v -0.108840 0.000000 -0.108840
v -0.133990 0.267979 -0.133990
v 0.108840 0.000000 0.108840
v 0.133990 0.267979 0.133990
v 0.108840 0.000000 -0.108840
v 0.133990 0.267979 -0.133990
v -0.133990 0.000000 -0.133990
v -0.133990 0.000000 0.133990
v 0.133990 0.000000 -0.133990
v 0.133990 0.000000 0.133990
v -0.108840 0.240601 -0.108840
v -0.108840 0.240601 0.108840
v 0.108840 0.240601 -0.108840
v 0.108840 0.240601 0.108840
vn -1.0000 -0.0000 -0.0000
vn -0.0000 -0.0000 -1.0000
vn 1.0000 -0.0000 -0.0000
vn -0.0000 -0.0000 1.0000
vn -0.0000 1.0000 -0.0000
vn -0.0000 -1.0000 -0.0000
vt 0.091754 0.191426
s 0
f 10/1/1 2/1/1 4/1/1 9/1/1
f 9/1/2 4/1/2 8/1/2 11/1/2
f 11/1/3 8/1/3 6/1/3 12/1/3
f 12/1/4 6/1/4 2/1/4 10/1/4
f 7/1/1 5/1/1 16/1/1 15/1/1
f 8/1/5 4/1/5 2/1/5 6/1/5
f 3/1/6 1/1/6 10/1/6 9/1/6
f 7/1/6 3/1/6 9/1/6 11/1/6
f 5/1/6 7/1/6 11/1/6 12/1/6
f 1/1/6 5/1/6 12/1/6 10/1/6
f 13/1/6 15/1/6 16/1/6 14/1/6
f 1/1/3 3/1/3 13/1/3 14/1/3
f 5/1/2 1/1/2 14/1/2 16/1/2
f 3/1/4 7/1/4 15/1/4 13/1/4
